<svg width="274" height="60" viewBox="0 0 274 60" fill="none" xmlns="http://www.w3.org/2000/svg">
<g clip-path="url(#clip0_916_5561)">
<path d="M30.8235 19.6964C33.139 20.641 35.038 22.1964 36.5095 24.3576C37.9811 26.5188 38.7223 29.3114 38.7223 32.7252C38.7223 36.139 37.9865 38.8751 36.5095 41.0414C35.0326 43.2026 33.1877 44.7581 30.9642 45.7026C28.7406 46.6472 26.4846 47.1195 24.1853 47.1195C21.5776 47.1195 19.2729 46.6574 17.2603 45.7283C15.2477 44.7991 13.4191 43.4285 11.7744 41.6112V47.3351C11.7744 49.8043 11.8123 51.8063 11.8881 53.331C11.9638 54.8556 12.1531 56.7858 12.4615 59.1113H0.856812C1.16519 56.7858 1.35454 54.8608 1.43028 53.331C1.50603 51.8063 1.54389 49.8043 1.54389 47.3351V31.1441C1.54389 28.7108 1.50603 26.7293 1.43028 25.1995C1.35454 23.6749 1.15978 21.7293 0.856812 19.3679H12.2884C12.0612 20.8566 11.9043 22.874 11.8285 25.4202C12.6725 23.2026 14.0521 21.4572 15.9673 20.1841C17.8825 18.911 20.3928 18.2744 23.4928 18.2744C26.0572 18.2744 28.5025 18.7467 30.8181 19.6913L30.8235 19.6964ZM25.738 41.9963C26.9607 39.9993 27.5774 36.909 27.5774 32.7303C27.5774 29.1677 26.9444 26.2878 25.6839 24.0907C24.4179 21.8935 22.4649 20.7898 19.8247 20.7898C17.4875 20.7898 15.5615 21.7087 14.0521 23.5414C12.5373 25.3792 11.7853 28.0589 11.7853 31.5856V39.7067C13.0512 41.3084 14.4579 42.5866 16.0106 43.5517C17.5633 44.5168 19.143 44.9942 20.7498 44.9942C22.8544 44.9942 24.5207 43.9932 25.7488 41.9963H25.738Z" fill="#365D4A"/>
<path d="M54.6443 8.33088C54.5685 9.94793 54.5307 12.0321 54.5307 14.5732V33.8751C54.5307 36.4213 54.5685 38.5003 54.6443 40.1174C54.72 41.7344 54.9094 43.7057 55.2178 46.0312H43.613C43.9214 43.7057 44.1108 41.7344 44.1865 40.1174C44.2623 38.5003 44.3001 36.4213 44.3001 33.8751V14.5732C44.3001 12.0321 44.2623 9.94793 44.1865 8.33088C44.1108 6.71383 43.916 4.74257 43.613 2.4171H55.2178C54.9094 4.74257 54.72 6.71383 54.6443 8.33088Z" fill="#365D4A"/>
<path d="M82.3928 46.0312C82.0086 44.2498 81.7976 42.525 81.7598 40.8515C80.9158 42.8124 79.5471 44.3525 77.6535 45.4562C75.76 46.565 73.2983 47.1194 70.2687 47.1194C67.4716 47.1194 65.0479 46.5291 63.0029 45.3484C60.9524 44.1677 59.9299 42.2888 59.9299 39.7067C59.9299 37.525 60.7036 35.7745 62.2563 34.4449C63.809 33.1204 65.5673 32.1656 67.542 31.5804C69.5167 31.0003 71.8214 30.4716 74.4669 29.9993C77.1125 29.5629 78.979 28.9367 80.0664 28.1204C81.1593 27.3042 81.7057 26.0414 81.7057 24.3319C81.7057 21.2056 80.2666 19.6451 77.3938 19.6451C75.668 19.6451 74.3479 19.9993 73.4282 20.7077C72.5085 21.4161 71.5887 22.4633 70.669 23.8443L69.8088 25.0968C69.2732 25.7898 68.6511 26.3032 67.9423 26.6523C67.2336 26.9962 66.4978 27.1707 65.7296 27.1707C64.6584 27.1707 63.6791 26.8165 62.7973 26.1081C61.9154 25.3997 61.3582 24.4089 61.131 23.1358C63.3545 21.7549 66.0163 20.5999 69.1163 19.6759C72.2163 18.7467 75.457 18.2847 78.8275 18.2847C82.9284 18.2847 86.1258 18.9674 88.4251 20.3278C90.7244 21.6933 91.8929 23.9726 91.9308 27.1707V34.2601C91.9308 36.8063 91.9795 38.8289 92.0769 40.3381C92.1743 41.8474 92.4123 43.7467 92.7965 46.0363H82.3982L82.3928 46.0312ZM79.9799 41.5342C81.1268 39.989 81.7057 38.0537 81.7057 35.7283V28.4746C81.3216 28.9469 80.813 29.3268 80.1854 29.6194C79.5525 29.912 78.8708 30.1841 78.1458 30.4356C77.4155 30.6923 76.9177 30.8514 76.6526 30.9284C74.7753 31.5804 73.3795 32.4942 72.4598 33.6543C71.54 34.8196 71.0802 36.2878 71.0802 38.0691C71.0802 40.0301 71.4643 41.488 72.2271 42.4326C72.9954 43.3771 74.045 43.8494 75.3867 43.8494C77.3019 43.8494 78.8329 43.0794 79.9853 41.5342H79.9799Z" fill="#365D4A"/>
<path d="M159.044 34.912C158.584 38.1102 157.902 40.6205 157.004 42.4377C156.106 44.255 154.975 45.5383 153.612 46.2827C152.254 47.0271 150.577 47.4018 148.586 47.4018C145.253 47.4018 142.889 46.5856 141.488 44.948C140.086 43.3104 139.389 40.8412 139.389 37.5352V20.7436H133.183V19.3781H134.162C136.727 19.3781 138.588 18.8802 139.735 17.8791C140.882 16.8781 141.574 15.6256 141.801 14.1163C142.029 12.6071 142.148 10.4356 142.148 7.60193H150.766C150.766 13.5619 148.24 17.489 143.181 19.3781H158.005V20.7436H149.614V39.0599C149.614 41.2057 149.825 42.7149 150.247 43.5825C150.669 44.4552 151.415 44.8915 152.486 44.8915C155.013 44.8915 156.798 41.565 157.832 34.912H159.038H159.044Z" fill="#365D4A"/>
<path d="M197.309 35.6205C194.783 43.2899 189.286 47.1246 180.819 47.1246C177.487 47.1246 174.419 46.5702 171.627 45.4613C168.83 44.3525 166.601 42.7149 164.935 40.5537C163.269 38.3925 162.436 35.7847 162.436 32.7303C162.436 29.6759 163.28 27.1143 164.962 24.9325C166.645 22.7508 168.852 21.0978 171.568 19.9736C174.289 18.8494 177.2 18.2847 180.3 18.2847C183.4 18.2847 186.256 18.8134 188.632 19.8658C191.007 20.9182 192.824 22.3555 194.09 24.1728C195.356 25.99 196.006 27.987 196.043 30.1687H173.635C173.597 30.5332 173.575 31.1133 173.575 31.9141C173.575 35.6205 174.506 38.6646 176.361 41.0465C178.217 43.4285 180.852 44.6194 184.26 44.6194C186.825 44.6194 189.162 43.8905 191.272 42.4377C193.376 40.9849 195.005 38.7108 196.157 35.6205H197.304H197.309ZM175.761 21.9089C174.652 23.4182 173.959 25.718 173.694 28.8032H185.299C185.299 25.8258 184.888 23.5516 184.065 21.9859C183.243 20.4253 181.928 19.6399 180.132 19.6399C178.336 19.6399 176.875 20.3946 175.766 21.9038L175.761 21.9089Z" fill="#365D4A"/>
<path d="M262.907 46.0312C262.523 44.2498 262.312 42.525 262.274 40.8515C261.43 42.8124 260.061 44.3525 258.168 45.4562C256.274 46.565 253.807 47.1194 250.783 47.1194C247.986 47.1194 245.562 46.5291 243.517 45.3484C241.467 44.1677 240.444 42.2888 240.444 39.7067C240.444 37.525 241.218 35.7745 242.771 34.4449C244.323 33.1204 246.082 32.1656 248.056 31.5804C250.031 31.0003 252.336 30.4716 254.981 29.9993C257.627 29.5629 259.493 28.9367 260.586 28.1204C261.679 27.3042 262.225 26.0414 262.225 24.3319C262.225 21.2056 260.786 19.6451 257.914 19.6451C256.188 19.6451 254.868 19.9993 253.948 20.7077C253.028 21.4161 252.108 22.4633 251.189 23.8443L250.329 25.0968C249.793 25.7898 249.171 26.3032 248.462 26.6523C247.753 26.9962 247.018 27.1707 246.249 27.1707C245.178 27.1707 244.199 26.8165 243.317 26.1081C242.435 25.3997 241.878 24.4089 241.651 23.1358C243.874 21.7549 246.536 20.5999 249.636 19.6759C252.741 18.7467 255.977 18.2847 259.347 18.2847C263.443 18.2847 266.645 18.9674 268.945 20.3278C271.244 21.6933 272.413 23.9726 272.451 27.1707V34.2601C272.451 36.8063 272.499 38.8289 272.597 40.3381C272.694 41.8474 272.932 43.7467 273.316 46.0363H262.918L262.907 46.0312ZM260.494 41.5342C261.641 39.989 262.22 38.0537 262.22 35.7283V28.4746C261.836 28.9469 261.327 29.3268 260.7 29.6194C260.067 29.912 259.385 30.1841 258.66 30.4356C257.93 30.6923 257.432 30.8514 257.167 30.9284C255.29 31.5804 253.894 32.4942 252.974 33.6543C252.054 34.8196 251.594 36.2878 251.594 38.0691C251.594 40.0301 251.979 41.488 252.741 42.4326C253.51 43.3771 254.559 43.8494 255.901 43.8494C257.816 43.8494 259.347 43.0794 260.5 41.5342H260.494Z" fill="#365D4A"/>
<path d="M237.415 43.4439C236.608 42.4788 235.727 41.3648 234.769 40.0917C233.698 38.603 232.508 37.4018 231.209 36.4931C229.905 35.5845 228.25 34.8402 226.237 34.2601C224.225 33.68 221.649 33.2436 218.512 32.951C226.984 32.5147 231.15 31.3853 233.13 28.3206C234.076 26.8525 234.682 24.142 234.639 22.3607C234.601 20.6718 234.964 19.3884 234.964 19.3884H223.727C226.962 27.6019 222.023 30.0404 221.444 30.3689C219.22 31.6215 216.109 32.2478 212.203 32.2478L212.133 14.5834C212.133 12.0424 212.171 9.95818 212.247 8.34113C212.322 6.72409 212.512 4.75283 212.82 2.42737H201.215C201.524 4.75283 201.713 6.72409 201.789 8.34113C201.865 9.95818 201.902 12.0424 201.902 14.5834V33.8853C201.902 36.4315 201.865 38.5106 201.789 40.1277C201.713 41.7447 201.518 43.7159 201.215 46.0414H212.82C212.512 43.9316 212.322 42.0784 212.247 40.4819C212.171 38.8853 212.133 37.0476 212.133 34.9736C212.133 34.1728 212.155 33.5722 212.193 33.1769C214.838 33.4336 217.04 34.0958 218.798 35.1687C220.562 36.2416 222.228 37.8843 223.797 40.102C224.793 41.4469 225.523 42.5096 225.983 43.2899C226.443 44.0701 226.881 44.9891 227.303 46.0414H239.773C239.005 45.2765 238.221 44.4141 237.42 43.4541L237.415 43.4439Z" fill="#365D4A"/>
<path d="M120.486 40.0917C120.561 38.603 120.599 36.6574 120.599 34.2601V25.8617C120.599 22.4839 119.409 20.7898 117.039 20.7898C114.053 20.7898 111.369 23.0075 108.994 27.4428V34.4192C108.994 36.8936 109.032 38.87 109.108 40.3638C109.184 41.8525 109.373 43.7416 109.681 46.0363H98.0768C98.3852 43.7468 98.5745 41.8576 98.6503 40.3638C98.726 38.8751 98.7638 36.8936 98.7638 34.4192V30.9849C98.7638 28.5517 98.726 26.5804 98.6503 25.0712C98.5745 23.5619 98.3797 21.6625 98.0768 19.373H109.681C109.335 21.5907 109.146 23.5362 109.108 25.2046C110.45 23.0588 112.078 21.3699 113.993 20.1328C115.909 18.8956 118.284 18.2796 121.118 18.2796C124.262 18.2796 126.675 19.1523 128.357 20.8976C130.04 22.643 130.884 25.4767 130.884 29.4038V34.255C130.884 36.6523 130.922 38.5979 130.997 40.0866C131.073 41.5753 131.262 43.5568 131.571 46.0312H119.907C120.215 43.562 120.404 41.5804 120.48 40.0866L120.486 40.0917Z" fill="#365D4A"/>
<path d="M167.819 0.922368C167.586 0.239615 167.207 0.922362 166.206 1.07637C160.964 1.87719 158.665 1.54864 155.484 4.72626C152.822 7.38541 151.935 11.5384 152.908 15.0189C152.935 15.1216 153.054 15.2704 153.352 15.0805C159.714 10.9942 165.671 3.5507 165.833 3.65337C166.358 3.98191 159.898 12.1287 154.234 16.2509C154.055 16.3793 154.072 16.677 154.445 16.7078C159.254 17.1288 163.431 15.9583 166.228 12.9912C169.095 9.94701 169.615 4.55174 167.819 0.922368Z" fill="#B34B23"/>
</g>
<defs>
<clipPath id="clip0_916_5561">
<rect width="273" height="59" fill="white" transform="translate(0.5 0.285706)"/>
</clipPath>
</defs>
</svg>
